<?xml version="1.0" encoding="utf-8"?>
<!-- Generator: Adobe Illustrator 24.1.0, SVG Export Plug-In . SVG Version: 6.00 Build 0)  -->
<svg version="1.1" id="Layer_1" xmlns="http://www.w3.org/2000/svg" xmlns:xlink="http://www.w3.org/1999/xlink" x="0px" y="0px"
	 viewBox="0 0 500 500" style="enable-background:new 0 0 500 500;" xml:space="preserve">
<style type="text/css">
	.st0{fill:#5C7709;}
	.st1{fill:#FF6262;}
	.st2{fill:#262626;}
	.st3{fill:#A1C04B;}
</style>
<g>
	<path class="st0" d="M280.57,108.71c0,0-5.6-2.91-4.24-11.07c1.36-8.16,9.97-9.52,9.97-9.52s38.11-1.74,37.45-43.26
		c0,0,21.64,5.66,35.11-7.24c0.78-0.76,0.8-2.01,0.03-2.8c-0.6-0.62-1.54-0.77-2.31-0.38c-8.81,4.42-23.15,9-34.97,0.52
		c0,0-4.99-31.59-25.08-25.5c-20.09,6.09,5.78,33.09,13.89,33.78c0,0,4.64,18.86-12.07,22.44c0,0-4.1-57.82-51.79-37.9
		c-39.19,16.37-6.9,57.21,15.84,58.35c1.21,0.06,2.14,1.08,2.08,2.29c-0.03,0.54-0.25,1.06-0.64,1.44
		c-5.79,5.79-17.23,15.12-28.74,12.43c0,0-78.83-12.47-139.44,60.15S41.67,367.4,99.59,429.18s120.09,50.1,136.65,47.43
		c16.56-2.67,27.28-2.86,53.71,0.39s96.96-12.46,133.33-111.33S420.42,129.05,280.57,108.71z M301.53,15.78
		c11.53-2.16,10.82,17.92,10.82,17.92C294.22,30.68,293.15,17.34,301.53,15.78L301.53,15.78z M242.9,54.48
		c1.03-20.66,34.26-24.66,40.87-9.09c4.25,10,0.35,19.53-2.99,25.09c-1.91,3.19-5.51,4.98-9.2,4.57
		C261.63,73.95,242.13,69.89,242.9,54.48L242.9,54.48z M289.42,459.78c13.52-8.4,27.46-102.89,19.39-197.9
		c-8.07-95.01-41.23-143.17-41.23-143.17c63.45-2.11,168.68,45.99,156.96,191.1C412.82,454.92,289.41,459.78,289.42,459.78
		L289.42,459.78z"/>
	<path class="st1" d="M300.05,453.11c6.57-15.42,10.45-41.95,12.44-59.22c4.69-41.1,5.28-89.39,1.62-132.48
		c-6.28-73.89-27.31-119.58-37.09-137.32c30.48,1.38,71.78,14.4,102.33,47.51c14.6,15.97,25.51,34.96,31.94,55.62
		c7.72,24.17,10.41,51.82,7.95,82.16c-2.61,32.22-11.09,59.9-25.25,82.23c-11.12,17.62-26.24,32.37-44.14,43.03
		C334.49,443.75,317.62,450.01,300.05,453.11z"/>
	<path class="st2" d="M340.39,177.27c7.62-1.38,11.32,1.41,12.09,5.56c0.77,4.15-1.74,8.06-9.37,9.44
		c-7.63,1.38-18.23-4.44-18.23-4.44S332.77,178.65,340.39,177.27z"/>
	<path class="st2" d="M365.09,239.33c7.62-1.38,11.32,1.41,12.09,5.56c0.77,4.15-1.74,8.06-9.37,9.44s-18.23-4.47-18.23-4.47
		S357.47,240.72,365.09,239.33z"/>
	<path class="st2" d="M372.15,303.22c7.55,1.74,9.86,5.77,8.91,9.88s-4.79,6.71-12.34,4.97c-7.55-1.74-14.99-11.32-14.99-11.32
		S364.6,301.47,372.15,303.22z"/>
	<path class="st2" d="M351.91,385.34c6.59,4.07,7.5,8.62,5.29,12.19s-6.69,4.83-13.28,0.77c-6.59-4.07-10.6-15.48-10.6-15.48
		S345.31,381.28,351.91,385.34z"/>
	<path class="st3" d="M181.6,149.29c-1.37,10.84-14.97,25.35-24,35.47c-9.03,10.12-6.1,13.46-4.9,28.13
		c1.19,14.67-7.53,28.78-14.26,39.58c-6.73,10.8,6.6,32.13,10.31,39.37c3.71,7.25,1.89,12.44-2.61,23.51
		c-4.5,11.08,2.12,20.86,11.86,30.81c9.74,9.95,5.14,13.93,3.99,27.41c-1.15,13.48,11.02,14.8,18.91,23.98s-4.07,21.77,4.01,33.23
		s20.59,22.5,20.77,24.73c0.18,2.23-10.81,10.26-24.07,1.04c-13.26-9.22-17.42-5.31-26.51-12.64c-9.09-7.32-4.57-17.97-22.1-24.62
		s-19.97-9.14-21.62-24.21c-1.65-15.07-22.81-11.15-25.07-22.59c-2.26-11.44,5.23-24.12,0.37-34.48s-18.78-22.21-11.32-35.77
		c7.45-13.56,5.1-20.09,0.87-27.81s-1.28-16,8.3-24.82s4.69-8.43,5.4-21.9c0.71-13.47,5.67-18.81,16.35-24.99
		s8.26-14.08,12.76-30.54s21.35-18.29,31.35-22.19c10-3.9,12.53-16.66,24.74-26.13c12.21-9.47,32.35-9.3,32.35-9.3
		C192.63,119.34,182.97,138.45,181.6,149.29z M228.89,114.19c0,0-28.18,11.2-29.5,28.3c-1.31,17.1,5.23,21.05-5.1,31.27
		c-10.33,10.22-27.09,19.16-25.93,39.19c1.16,20.03,7.29,24.02-1.28,39.91s-7.63,22.08-2.89,36.46c4.74,14.38-3.48,28.91,4.21,47.08
		c7.7,18.17,18.74,21.77,21.5,39.43c2.76,17.66,6.71,11.09,9.9,28.74c3.2,17.64,16.64,40.27,31.58,48.02
		c14.94,7.75,25.44-0.7,24.53-6.44c-0.91-5.74-19.05-19.94-13.48-34.26c5.56-14.32,12.55-10.84,4.94-27.68
		c-7.61-16.84-18.91-23.98-9.68-42.61c9.24-18.63,11.08-23.7,1.52-36.8c-9.55-13.11,9.97-26.3,7.73-43.12s-14.63-20.74-11.67-33.96
		c2.96-13.22,9.58-14.19,7.84-24.78s-19.25-33.8-17.13-51.86C228.11,133.02,239.9,111.97,228.89,114.19L228.89,114.19z
		 M254.42,120.2c0,0-19.16,17.19-8.13,43.59c11.02,26.4,13.41,33.37,7.76,52.16c-5.65,18.79,7.32,41.02,10.01,52.43
		c2.7,11.41-1.3,11.73-6.1,24.65c-4.8,12.91,17.77,26.31,11.67,45.14c-6.1,18.83-11.78,25.99-7.67,38.19
		c4.11,12.19,10.07,13.93,2.42,30.23c-7.65,16.29,2.37,23.97,3.29,35.52c0.92,11.56,2.25,16.89,8.6,12.32
		c6.35-4.57,20.24-43.26,25.11-138.93S268.3,125.8,254.42,120.2L254.42,120.2z"/>
</g>
</svg>
