<svg xmlns="http://www.w3.org/2000/svg" xmlns:xlink="http://www.w3.org/1999/xlink" style="isolation:isolate" viewBox="0 0 1024 768" width="1024pt" height="768pt"><defs><clipPath id="_clipPath_2MSuTwfsXjOZvLbqL6Hp8xGX6LverlMh"><rect width="1024" height="768"/></clipPath></defs><g clip-path="url(#_clipPath_2MSuTwfsXjOZvLbqL6Hp8xGX6LverlMh)"><clipPath id="_clipPath_BVMqk0dWwDWaJ98SUYi8KHbAW0uxeTW4"><rect x="0" y="0" width="1024" height="768" transform="matrix(1,0,0,1,0,0)" fill="rgb(255,255,255)"/></clipPath><g clip-path="url(#_clipPath_BVMqk0dWwDWaJ98SUYi8KHbAW0uxeTW4)"><g><g><g><path d=" M 304.309 28.738 L 305.577 73.035 L 20.471 80.834 L 16.863 79.986 C 18.21 65.426 16.386 50.645 11.39 36.739 L 304.309 28.738 Z " fill="rgb(11,155,83)"/><path d=" M 406.526 23.696 L 407.776 68.02 C 407.956 74.427 402.904 79.76 396.49 79.935 L 312.002 82.229 C 305.588 82.402 300.242 77.347 300.064 70.94 L 300.064 70.94 L 298.797 26.644 L 298.795 26.629 C 298.619 20.226 303.668 14.895 310.076 14.722 L 394.585 12.412 C 401 12.238 406.346 17.29 406.526 23.696 Z " fill="rgb(6,181,89)"/><path d=" M 396.492 79.935 L 312.009 82.242 C 305.597 82.409 300.246 77.351 300.072 70.946 L 299.567 52.91 C 299.741 59.316 305.092 64.374 311.504 64.206 L 395.987 61.9 C 402.337 61.731 407.351 56.499 407.276 50.171 L 407.787 68.021 C 407.96 74.426 402.903 79.77 396.492 79.935 Z " fill="rgb(11,155,83)"/></g></g></g></g></g></svg>