<?xml version="1.0" encoding="UTF-8" standalone="no"?><!-- Generator: Gravit.io --><svg xmlns="http://www.w3.org/2000/svg" xmlns:xlink="http://www.w3.org/1999/xlink" style="isolation:isolate" viewBox="0 0 1000 1000" width="1000pt" height="1000pt"><defs><clipPath id="_clipPath_vQSkRGHCEsNzO9Ee1OSBdJtrBAXjJcoS"><rect width="1000" height="1000"/></clipPath></defs><g clip-path="url(#_clipPath_vQSkRGHCEsNzO9Ee1OSBdJtrBAXjJcoS)"><g><g><path d=" M 542.998 243.842 L 542.998 278.464 L 532.098 278.464 L 404.512 278.464 L 404.512 243.842 C 404.512 227.307 415.768 213.912 429.659 213.912 L 517.85 213.912 C 531.743 213.912 542.998 227.307 542.998 243.842 Z " fill="rgb(6,181,89)"/><path d=" M 654.056 408.077 L 654.056 435.407 L 282.554 435.407 L 282.554 408.077 C 282.554 388.829 285.761 369.979 291.837 352.514 C 297.917 335.074 306.845 319.051 318.266 305.429 C 341.134 278.212 372.171 262.923 404.512 262.923 L 532.098 262.923 C 548.27 262.923 564.108 266.738 578.782 273.972 C 593.434 281.179 606.896 291.806 618.341 305.429 C 620.621 308.142 622.807 310.94 624.872 313.852 C 636.485 330.017 644.891 348.983 649.616 369.274 C 652.538 381.792 654.056 394.85 654.056 408.077 Z " fill="rgb(6,181,89)"/><path d=" M 388.005 352.511 C 394.084 335.073 403.013 319.05 414.434 305.427 C 437.302 278.209 468.338 262.92 500.68 262.92 L 404.515 262.92 C 372.172 262.92 341.137 278.209 318.269 305.427 C 306.846 319.05 297.919 335.074 291.84 352.511 C 285.761 369.979 282.556 388.829 282.556 408.075 L 282.556 435.404 L 378.721 435.404 L 378.721 408.077 C 378.719 388.829 381.926 369.979 388.005 352.511 Z " fill="rgb(11,155,83)"/><g><path d=" M 363.312 712.549 C 363.312 679.51 340.802 652.718 313.044 652.718 C 285.261 652.718 262.749 679.51 262.749 712.549 C 262.749 745.587 285.259 772.379 313.044 772.379 C 340.802 772.382 363.312 745.587 363.312 712.549 Z " fill="rgb(153,153,153)"/><path d=" M 539.104 722.95 C 539.104 695.649 520.511 673.52 497.573 673.52 C 474.658 673.52 456.065 695.649 456.065 722.95 C 456.065 750.253 474.658 772.382 497.573 772.382 C 520.511 772.382 539.104 750.253 539.104 722.95 Z " fill="rgb(153,153,153)"/><path d=" M 748.257 708.735 C 748.257 673.576 724.298 645.059 694.757 645.059 C 665.241 645.059 641.282 673.576 641.282 708.735 C 641.282 743.893 665.241 772.382 694.757 772.382 C 724.298 772.382 748.257 743.893 748.257 708.735 Z " fill="rgb(153,153,153)"/><path d=" M 871.641 674.338 C 881.661 666.226 888.239 652.546 888.239 637.031 C 888.239 612.132 871.261 591.924 850.34 591.924 C 829.397 591.924 812.418 612.132 812.418 637.031 C 812.418 661.958 829.397 682.139 850.34 682.139 C 858.224 682.139 865.585 679.258 871.641 674.338 Z " fill="rgb(153,153,153)"/><path d=" M 127.611 700.595 C 132.549 702.715 137.868 703.874 143.426 703.874 C 168.999 703.874 189.754 679.202 189.754 648.732 C 189.754 618.296 168.999 593.592 143.426 593.592 C 117.827 593.592 97.098 618.293 97.098 648.732 C 97.098 672.531 109.755 692.794 127.491 700.539 C 127.541 700.539 127.564 700.566 127.611 700.595 Z " fill="rgb(153,153,153)"/></g><path d=" M 871.641 674.338 L 811.113 743.44 C 794.87 762.007 773.214 772.379 750.704 772.379 L 694.757 772.379 C 724.298 772.379 748.257 743.89 748.257 708.732 C 748.257 673.574 724.298 645.056 694.757 645.056 C 665.241 645.056 641.282 673.574 641.282 708.732 C 641.282 743.89 665.241 772.379 694.757 772.379 L 497.573 772.379 C 520.511 772.379 539.104 750.25 539.104 722.949 C 539.104 695.648 520.511 673.518 497.573 673.518 C 474.658 673.518 456.065 695.648 456.065 722.949 C 456.065 750.25 474.658 772.379 497.573 772.379 L 313.044 772.379 C 340.802 772.379 363.312 745.587 363.312 712.549 C 363.312 679.51 340.802 652.718 313.044 652.718 C 285.261 652.718 262.749 679.51 262.749 712.549 C 262.749 745.587 285.259 772.379 313.044 772.379 L 275.834 772.379 C 262.56 772.379 249.428 769.299 237.128 763.363 L 127.613 700.592 C 132.552 702.712 137.871 703.871 143.428 703.871 C 169.002 703.871 189.756 679.199 189.756 648.731 C 189.756 618.293 169.002 593.591 143.428 593.591 L 850.342 591.921 C 829.399 591.921 812.42 612.13 812.42 637.03 C 812.42 661.956 829.399 682.137 850.342 682.137 C 858.224 682.139 865.585 679.258 871.641 674.338 Z " fill="rgb(8,132,67)"/><path d=" M 788.103 517.792 L 179.094 517.792 L 148.509 517.792 L 179.891 446.814 C 184.146 437.19 192.528 431.167 201.667 431.167 L 282.556 431.167 L 654.059 431.167 L 696.183 431.167 L 788.103 517.792 Z " fill="rgb(6,181,89)"/><g><path d=" M 282.554 431.167 L 201.667 431.167 C 192.532 431.167 184.148 437.191 179.891 446.814 L 148.509 517.792 L 179.094 517.792 L 273.168 517.792 L 311.469 431.167 L 282.554 431.167 Z " fill="rgb(11,155,83)"/><path d=" M 897.89 570.414 L 858.911 538.987 L 179.094 538.987 C 155.986 538.987 133.5 544.479 112.256 555.307 L 88.687 567.341 L 74.642 528.381 L 98.223 516.341 C 123.935 503.235 151.141 496.593 179.094 496.593 L 864.375 496.593 C 867.938 496.593 871.418 497.864 874.362 500.242 L 917.865 535.315 L 897.89 570.414 Z " fill="rgb(11,155,83)"/></g><g><path d=" M 313.044 790.751 C 276.801 790.751 247.316 755.669 247.316 712.549 C 247.316 669.428 276.801 634.346 313.044 634.346 C 349.274 634.346 378.748 669.428 378.748 712.549 C 378.748 755.669 349.271 790.751 313.044 790.751 Z  M 313.044 671.089 C 293.82 671.089 278.184 689.691 278.184 712.551 C 278.184 735.412 293.82 754.012 313.044 754.012 C 332.252 754.012 347.879 735.412 347.879 712.551 C 347.879 689.688 332.252 671.089 313.044 671.089 Z " fill="rgb(77,77,77)"/><path d=" M 497.573 790.751 C 466.174 790.751 440.63 760.335 440.63 722.949 C 440.63 685.563 466.174 655.145 497.573 655.145 C 528.984 655.145 554.539 685.563 554.539 722.949 C 554.539 760.335 528.984 790.751 497.573 790.751 Z  M 497.573 691.89 C 483.197 691.89 471.5 705.823 471.5 722.949 C 471.5 740.075 483.197 754.008 497.573 754.008 C 511.964 754.008 523.671 740.075 523.671 722.949 C 523.671 705.823 511.962 691.89 497.573 691.89 Z " fill="rgb(77,77,77)"/><path d=" M 694.757 790.751 C 656.763 790.751 625.846 753.956 625.846 708.732 C 625.846 663.491 656.761 626.685 694.757 626.685 C 732.768 626.685 763.692 663.491 763.692 708.732 C 763.692 753.959 732.768 790.751 694.757 790.751 Z  M 694.757 663.428 C 673.783 663.428 656.717 683.751 656.717 708.732 C 656.717 733.696 673.783 754.008 694.757 754.008 C 715.746 754.008 732.823 733.696 732.823 708.732 C 732.823 683.754 715.746 663.428 694.757 663.428 Z " fill="rgb(77,77,77)"/><path d=" M 850.34 700.51 C 820.918 700.51 796.982 672.034 796.982 637.034 C 796.982 602.034 820.918 573.557 850.34 573.557 C 879.747 573.557 903.672 602.034 903.672 637.034 C 903.672 658.069 894.941 677.696 880.318 689.531 C 871.465 696.71 861.101 700.51 850.34 700.51 Z  M 850.34 610.295 C 837.94 610.295 827.853 622.29 827.853 637.031 C 827.853 651.774 837.943 663.767 850.34 663.767 C 854.874 663.767 859.231 662.175 862.94 659.164 C 862.948 659.159 862.954 659.152 862.962 659.146 C 869.124 654.16 872.805 645.89 872.805 637.031 C 872.804 622.29 862.726 610.295 850.34 610.295 Z " fill="rgb(77,77,77)"/><path d=" M 143.428 722.243 C 136.212 722.243 129.131 720.773 122.376 717.872 C 122.241 717.816 122.107 717.753 121.976 717.695 C 97.855 707.047 81.663 679.367 81.663 648.732 C 81.663 608.2 109.37 575.221 143.428 575.221 C 177.485 575.221 205.192 608.197 205.192 648.732 C 205.189 689.266 177.483 722.243 143.428 722.243 Z  M 133.13 683.433 C 136.432 684.808 139.894 685.503 143.423 685.503 C 160.46 685.503 174.316 669.006 174.316 648.732 C 174.316 628.46 160.457 611.963 143.423 611.963 C 126.39 611.963 112.531 628.46 112.531 648.732 C 112.531 664.055 120.62 677.897 132.677 683.233 C 132.832 683.298 132.982 683.364 133.13 683.433 Z " fill="rgb(77,77,77)"/><path d=" M 750.704 790.751 L 275.834 790.751 C 260.554 790.751 245.579 787.266 231.33 780.386 C 231.026 780.239 230.728 780.08 230.433 779.914 L 121.536 717.498 C 97.657 706.71 81.663 679.183 81.663 648.731 C 81.663 608.197 109.37 575.219 143.428 575.219 L 850.313 573.549 C 850.322 573.549 850.332 573.549 850.344 573.549 C 879.75 573.549 903.677 602.027 903.677 637.027 C 903.677 657.507 895.403 676.649 881.472 688.566 L 821.8 756.693 C 802.593 778.657 777.341 790.751 750.704 790.751 Z  M 243.363 746.551 C 253.779 751.503 264.701 754.012 275.833 754.012 L 750.701 754.012 C 769.328 754.012 786.982 745.553 800.419 730.193 L 860.953 661.079 C 861.576 660.369 862.245 659.722 862.96 659.146 C 869.122 654.16 872.804 645.89 872.804 637.031 C 872.804 622.298 862.738 610.31 850.362 610.295 L 143.455 611.963 C 126.39 611.963 112.533 628.46 112.533 648.732 C 112.533 664.045 120.611 677.88 132.657 683.226 C 133.272 683.48 133.871 683.782 134.45 684.125 L 243.363 746.551 Z " fill="rgb(77,77,77)"/></g></g></g><g clip-path="url(#_clipPath_MxgOPw5UscwDnlkg9Sc9Oqx6K9q1Prxr)"><text transform="matrix(1,0,0,1,378.811,475.372)" style="font-family:'Orbitron';font-weight:400;font-size:25px;font-style:normal;fill:#000000;stroke:none;">Watermelon Force</text></g><defs><clipPath id="_clipPath_MxgOPw5UscwDnlkg9Sc9Oqx6K9q1Prxr"><rect x="0" y="0" width="308.087" height="31.35" transform="matrix(1,0,0,1,378.811,450.097)"/></clipPath></defs><g><path d=" M 353.925 479.167 C 351.227 481.085 346.734 483.354 340.233 483.796 C 339.619 483.837 338.985 483.863 338.333 483.871 C 330.833 483.956 325.67 481.963 322.66 480.278 C 321.45 479.607 320.309 478.817 319.254 477.922 C 318.22 480.664 317.604 482.465 317.643 482.772 C 317.859 484.463 324.962 490.02 337.126 490.396 C 349.291 490.771 358.431 483.608 358.416 481.902 C 358.416 481.902 357.619 480.094 356.333 477.183 C 355.579 477.9 354.773 478.563 353.925 479.167 Z " fill="rgb(161,192,75)"/><path d=" M 337.129 488.083 C 326.49 487.755 319.723 483.463 318.048 481.266 C 317.77 482.097 317.625 482.624 317.645 482.777 C 317.861 484.468 324.964 490.025 337.129 490.4 C 349.293 490.776 358.434 483.613 358.418 481.906 L 357.859 480.644 C 355.71 483.221 347.524 488.404 337.129 488.083 Z " fill="rgb(92,119,9)"/><path d=" M 323.636 478.757 C 326.444 480.311 331.27 482.148 338.316 482.068 C 345.336 481.989 350.07 479.677 352.805 477.752 C 353.792 477.06 354.713 476.279 355.556 475.418 C 350.74 464.514 341.236 447.074 338.1 440.182 C 337.86 439.662 337.244 439.434 336.723 439.674 C 336.487 439.782 336.3 439.975 336.2 440.214 C 333.312 447.152 324.241 464.956 319.947 476.115 C 321.063 477.144 322.303 478.03 323.636 478.757 Z " fill="rgb(255,98,98)"/><path d=" M 339.446 475.518 C 339.414 476.512 338.864 476.901 338.202 476.88 C 337.539 476.859 337.013 476.433 337.045 475.443 C 337.076 474.452 338.314 473.279 338.314 473.279 C 338.314 473.279 339.477 474.523 339.446 475.518 Z " fill="rgb(38,38,38)"/><path d=" M 338.541 457.181 C 338.578 458.176 338.055 458.601 337.392 458.625 C 336.73 458.65 336.177 458.263 336.141 457.269 C 336.104 456.276 337.258 455.024 337.258 455.024 C 337.258 455.024 338.504 456.186 338.541 457.181 Z " fill="rgb(38,38,38)"/><path d=" M 343.306 465.523 C 343.427 466.511 342.942 466.976 342.283 467.059 C 341.625 467.142 341.042 466.802 340.921 465.814 C 340.8 464.826 341.846 463.483 341.846 463.483 C 341.846 463.483 343.185 464.536 343.306 465.523 Z " fill="rgb(38,38,38)"/><path d=" M 330.736 465.444 C 330.553 466.422 331.008 466.919 331.66 467.041 C 332.311 467.163 332.915 466.862 333.097 465.883 C 333.279 464.904 332.315 463.498 332.315 463.498 C 332.315 463.498 330.922 464.466 330.736 465.444 Z " fill="rgb(38,38,38)"/><path d=" M 349.587 473.081 C 349.91 474.022 349.534 474.581 348.907 474.797 C 348.28 475.012 347.639 474.803 347.315 473.862 C 346.991 472.921 347.735 471.389 347.735 471.389 C 347.735 471.389 349.261 472.138 349.587 473.081 Z " fill="rgb(38,38,38)"/><path d=" M 325.911 472.794 C 325.529 473.713 325.87 474.294 326.483 474.549 C 327.095 474.803 327.748 474.635 328.129 473.716 C 328.51 472.797 327.864 471.221 327.864 471.221 C 327.864 471.221 326.292 471.874 325.911 472.794 Z " fill="rgb(38,38,38)"/></g></g></svg>